#!OML:ASF E:\motion texture\Top Level 1\Subject 1\Session 1\male.ASF
:FULLY-SPECIFIED
:DEGREES
365
root -18.2883 18.1003 3.61518 94.7573 -82.1301 -88.4147
lowerback -2.0673 -2.03513 4.55771
upperback -2.16518 -2.95769 6.60039
thorax -0.947696 -1.58895 4.23076
lowerneck -10.9081 -5.73895 -6.58894
upperneck 15.8246 -8.9171 10.855
head 7.44214 -3.87087 3.72342
rclavicle -3.23025e-015 3.18055e-015
rhumerus -30.2346 -33.0451 -51.3953
rradius 93.7054
rwrist -32.6856
rhand -8.94355 -30.4032
rfingers 7.12502
rthumb 17.0008 -59.6792
lclavicle -3.23025e-015 3.18055e-015
lhumerus -17.6897 12.2107 68.1574
lradius 96.4697
lwrist 21.2016
lhand -6.96504 27.0311
lfingers 7.12502
lthumb 18.9044 56.1324
rfemur -14.4164 2.8928 31.5987
rtibia 13.9008
rfoot -1.93037 -9.7705
rtoes 21.2385
lfemur -13.5439 1.28297 -7.66422
ltibia 57.7521
lfoot 5.67912 0.445734
ltoes -12.6066
366
root -18.4216 18.111 3.59439 96.092 -82.1099 -89.8635
lowerback -2.08717 -1.94896 4.47412
upperback -2.17177 -2.84047 6.55421
thorax -0.946277 -1.5284 4.22981
lowerneck -10.6916 -5.94087 -6.86567
upperneck 16.0072 -9.25939 11.1797
head 7.52462 -4.03327 3.84305
rclavicle 8.52289e-015 -1.43125e-014
rhumerus -28.7837 -33.2196 -51.5472
rradius 93.9869
rwrist -32.6487
rhand -9.24381 -30.0855
rfingers 7.12502
rthumb 16.7117 -59.3861
lclavicle 8.52289e-015 -1.43125e-014
lhumerus -17.068 12.3516 67.5542
lradius 97.026
lwrist 18.3938
lhand -7.28813 25.7236
lfingers 7.12502
lthumb 18.5937 54.8549
rfemur -13.6617 3.06113 31.7513
rtibia 13.6874
rfoot -2.27253 -9.74057
rtoes 21.1256
lfemur -14.3953 1.6751 -7.52623
ltibia 58.5067
lfoot 4.94524 1.07832
ltoes -12.8222
367
root -18.5534 18.1213 3.57478 97.4014 -82.1092 -91.2778
lowerback -2.10506 -1.86311 4.38324
upperback -2.18688 -2.7222 6.49774
thorax -0.955119 -1.46714 4.22261
lowerneck -10.47 -6.13788 -7.15397
upperneck 16.185 -9.59235 11.4889
head 7.60572 -4.19358 3.96085
rclavicle 1.39149e-014 -2.70347e-014
rhumerus -27.2991 -33.4393 -51.6516
rradius 94.0834
rwrist -32.5979
rhand -9.52372 -29.7634
rfingers 7.12502
rthumb 16.4423 -59.0866
lclavicle 1.39149e-014 -2.70347e-014
lhumerus -16.3985 12.5717 66.9133
lradius 97.4669
lwrist 15.8904
lhand -7.60209 24.4617
lfingers 7.12502
lthumb 18.2917 53.6217
rfemur -12.9241 3.21215 31.8714
rtibia 13.4756
rfoot -2.60126 -9.71119
rtoes 20.986
lfemur -15.2386 2.01633 -7.43358
ltibia 59.1165
lfoot 4.21334 1.61129
ltoes -13.0434
368
root -18.6839 18.1311 3.55647 98.7179 -82.111 -92.6932
lowerback -2.12073 -1.77514 4.30585
upperback -2.20682 -2.60038 6.43148
thorax -0.971523 -1.40421 4.19796
lowerneck -10.2524 -6.32996 -7.43225
upperneck 16.3565 -9.91684 11.7728
head 7.68499 -4.35141 4.06956
rclavicle 4.08875e-014 -4.13472e-014
rhumerus -25.7823 -33.7086 -51.7212
rradius 93.9819
rwrist -32.5395
rhand -9.76944 -29.4388
rfingers 7.12502
rthumb 16.2057 -58.7815
lclavicle 4.08875e-014 -4.13472e-014
lhumerus -15.6829 12.8659 66.2384
lradius 97.7943
lwrist 13.8083
lhand -7.8843 23.2988
lfingers 7.12502
lthumb 18.0202 52.484
rfemur -12.2055 3.34138 31.9787
rtibia 13.2776
rfoot -2.91057 -9.66194
rtoes 20.7217
lfemur -16.0685 2.31509 -7.36571
ltibia 59.5874
lfoot 3.39672 2.05522
ltoes -13.4253
369
root -18.8133 18.1403 3.5397 100.086 -82.0983 -94.152
lowerback -2.13367 -1.68292 4.26147
upperback -2.23162 -2.47278 6.35825
thorax -0.996449 -1.3389 4.14791
lowerneck -10.0548 -6.51889 -7.67594
upperneck 16.5372 -10.2341 12.0021
head 7.7674 -4.50712 4.15478
rclavicle 7.30534e-015 -7.71285e-014
rhumerus -24.2378 -34.0226 -51.7666
rradius 93.6751
rwrist -32.4824
rhand -9.95492 -29.0949
rfingers 7.12502
rthumb 16.0271 -58.452
lclavicle 7.30534e-015 -7.71285e-014
lhumerus -14.9232 13.2341 65.5351
lradius 98.0133
lwrist 12.2734
lhand -8.06424 22.2477
lfingers 7.12502
lthumb 17.847 51.4488
rfemur -11.5161 3.43925 32.0909
rtibia 13.1062
rfoot -3.20329 -9.58327
rtoes 20.3554
lfemur -16.8864 2.58156 -7.30295
ltibia 59.922
lfoot 2.52301 2.40983
ltoes -13.807
370
root -18.9415 18.1487 3.52439 101.496 -82.0643 -95.6418
lowerback -2.15201 -1.58723 4.25768
upperback -2.25525 -2.3417 6.27802
thorax -1.01904 -1.27243 4.06763
lowerneck -9.8963 -6.70263 -7.87849
upperneck 16.7312 -10.5419 12.1812
head 7.85689 -4.65791 4.21643
rclavicle -2.49226e-014 2.46493e-014
rhumerus -22.6587 -34.3808 -51.8074
rradius 93.1532
rwrist -32.4313
rhand -10.0577 -28.7252
rfingers 7.12502
rthumb 15.928 -58.0902
lclavicle -2.49226e-014 2.46493e-014
lhumerus -14.1232 13.6771 64.8095
lradius 98.1317
lwrist 11.3794
lhand -8.06884 21.3279
lfingers 7.12502
lthumb 17.8426 50.5294
rfemur -10.8622 3.51866 32.2136
rtibia 12.9706
rfoot -3.49187 -9.48507
rtoes 19.9456
lfemur -17.6953 2.81957 -7.23465
ltibia 60.1218
lfoot 1.59956 2.68329
ltoes -14.0853
371
root -19.0686 18.1563 3.51081 102.97 -82.0057 -97.1893
lowerback -2.1659 -1.48616 4.29612
upperback -2.28046 -2.20375 6.19285
thorax -1.04745 -1.20325 3.95887
lowerneck -9.77007 -6.8776 -8.04489
upperneck 16.9339 -10.8351 12.3177
head 7.9505 -4.8013 4.25854
rclavicle 2.60905e-015 -7.95139e-016
rhumerus -21.0621 -34.7727 -51.8405
rradius 92.4194
rwrist -32.3872
rhand -10.14 -28.34
rfingers 7.12502
rthumb 15.8488 -57.7113
lclavicle 2.60905e-015 -7.95139e-016
lhumerus -13.2985 14.1883 64.0758
lradius 98.1573
lwrist 11.184
lhand -7.89213 20.5585
lfingers 7.12502
lthumb 18.0126 49.7444
rfemur -10.2421 3.57513 32.3476
rtibia 12.8753
rfoot -3.78278 -9.3611
rtoes 19.5049
lfemur -18.4849 3.03289 -7.15862
ltibia 60.1812
lfoot 0.630256 2.89746
ltoes -14.2756
372
root -19.1943 18.1631 3.49854 104.419 -81.9212 -98.6964
lowerback -2.17487 -1.38499 4.37215
upperback -2.31228 -2.0658 6.10833
thorax -1.08618 -1.13495 3.83012
lowerneck -9.66955 -7.038 -8.18287
upperneck 17.141 -11.105 12.4189
head 8.04498 -4.93329 4.28599
rclavicle 1.08695e-014 1.59028e-014
rhumerus -19.4514 -35.1818 -51.8686
rradius 91.472
rwrist -32.3442
rhand -10.1918 -27.9713
rfingers 7.12502
rthumb 15.7989 -57.3466
lclavicle 1.08695e-014 1.59028e-014
lhumerus -12.4766 14.765 63.3364
lradius 98.0976
lwrist 11.6943
lhand -7.53885 19.9557
lfingers 7.12502
lthumb 18.3525 49.1099
rfemur -9.66338 3.62694 32.4965
rtibia 12.8191
rfoot -4.0894 -9.23595
rtoes 19.1122
lfemur -19.2672 3.22036 -7.06688
ltibia 60.1117
lfoot -0.360696 3.06543
ltoes -14.4166
373
root -19.3185 18.1688 3.48754 105.859 -81.8206 -100.183
lowerback -2.17784 -1.28294 4.4732
upperback -2.349 -1.92645 6.02252
thorax -1.13349 -1.0666 3.68638
lowerneck -9.57835 -7.1804 -8.30729
upperneck 17.332 -11.3475 12.511
head 8.1323 -5.05193 4.31092
rclavicle -6.76722e-015 -1.98785e-014
rhumerus -17.8277 -35.6121 -51.8977
rradius 90.3197
rwrist -32.2927
rhand -10.2205 -27.6604
rfingers 7.12502
rthumb 15.7713 -57.0378
lclavicle -6.76722e-015 -1.98785e-014
lhumerus -11.6606 15.4039 62.609
lradius 97.9429
lwrist 12.8139
lhand -7.06148 19.5329
lfingers 7.12502
lthumb 18.8117 48.6433
rfemur -9.12482 3.686 32.6492
rtibia 12.8017
rfoot -4.40613 -9.12136
rtoes 18.7699
lfemur -20.0406 3.37965 -6.97134
ltibia 59.9186
lfoot -1.33377 3.21558
ltoes -14.4079
374
root -19.4414 18.1736 3.47765 107.281 -81.7097 -101.642
lowerback -2.16945 -1.1784 4.5901
upperback -2.39271 -1.7828 5.93691
thorax -1.19413 -0.996714 3.53453
lowerneck -9.47585 -7.30109 -8.43176
upperneck 17.4862 -11.5571 12.6115
head 8.20281 -5.15523 4.3429
rclavicle -1.17345e-014 6.2816e-014
rhumerus -16.2033 -36.06 -51.9198
rradius 88.9767
rwrist -32.2399
rhand -10.2729 -27.4787
rfingers 7.12502
rthumb 15.7209 -56.8601
lclavicle -1.17345e-014 6.2816e-014
lhumerus -10.8577 16.0959 61.9109
lradius 97.676
lwrist 14.3899
lhand -6.50614 19.2944
lfingers 7.12502
lthumb 19.3457 48.3521
rfemur -8.61893 3.76269 32.8007
rtibia 12.8132
rfoot -4.73476 -9.02395
rtoes 18.473
lfemur -20.8009 3.51207 -6.87663
ltibia 59.6065
lfoot -2.32937 3.38389
ltoes -14.5213
375
root -19.5631 18.1772 3.46881 108.692 -81.5901 -103.082
lowerback -2.15342 -1.07355 4.71776
upperback -2.44175 -1.63817 5.85415
thorax -1.26386 -0.926931 3.37994
lowerneck -9.37842 -7.40525 -8.54884
upperneck 17.6306 -11.7379 12.6908
head 8.2664 -5.24593 4.36986
rclavicle 2.9445e-015 1.98785e-014
rhumerus -14.5827 -36.5111 -51.9402
rradius 87.4613
rwrist -32.2007
rhand -10.3721 -27.4523
rfingers 7.12502
rthumb 15.6253 -56.8413
lclavicle 2.9445e-015 1.98785e-014
lhumerus -10.0727 16.8535 61.2562
lradius 97.2849
lwrist 16.2498
lhand -5.87984 19.2567
lfingers 7.12502
lthumb 19.9479 48.2529
rfemur -8.13783 3.8611 32.95
rtibia 12.8442
rfoot -5.06092 -8.95143
rtoes 18.2191
lfemur -21.5413 3.62028 -6.78319
ltibia 59.1776
lfoot -3.25339 3.56537
ltoes -14.4911
376
root -19.6838 18.1799 3.46097 110.063 -81.469 -104.476
lowerback -2.13349 -0.969278 4.84987
upperback -2.49196 -1.49408 5.77231
thorax -1.33605 -0.857773 3.22382
lowerneck -9.29259 -7.49705 -8.65569
upperneck 17.7611 -11.8953 12.7501
head 8.32325 -5.32589 4.39087
rclavicle -6.95125e-015 -1.35174e-014
rhumerus -12.9594 -36.9773 -51.9705
rradius 85.789
rwrist -32.19
rhand -10.5233 -27.6026
rfingers 7.12502
rthumb 15.4796 -57.0029
lclavicle -6.95125e-015 -1.35174e-014
lhumerus -9.31201 17.6673 60.6529
lradius 96.7629
lwrist 18.2191
lhand -5.25682 19.3881
lfingers 7.12502
lthumb 20.5466 48.3208
rfemur -7.67599 3.97492 33.091
rtibia 12.8883
rfoot -5.37902 -8.90183
rtoes 17.978
lfemur -22.2594 3.70056 -6.69603
ltibia 58.6323
lfoot -4.10853 3.76119
ltoes -14.4725
377
root -19.8037 18.1817 3.45407 111.338 -81.3412 -105.769
lowerback -2.11278 -0.867736 4.99257
upperback -2.54356 -1.35393 5.69597
thorax -1.40915 -0.791142 3.06745
lowerneck -9.20065 -7.57668 -8.76108
upperneck 17.8667 -12.0281 12.7939
head 8.3669 -5.39583 4.40956
rclavicle 8.94531e-016 3.81667e-014
rhumerus -11.339 -37.453 -52.013
rradius 83.9809
rwrist -32.2307
rhand -10.7133 -27.9204
rfingers 7.12502
rthumb 15.2967 -57.3347
lclavicle 8.94531e-016 3.81667e-014
lhumerus -8.58311 18.5289 60.1057
lradius 96.1038
lwrist 20.175
lhand -4.70061 19.6583
lfingers 7.12502
lthumb 21.081 48.5324
rfemur -7.22684 4.09232 33.234
rtibia 12.9348
rfoot -5.6835 -8.87142
rtoes 17.6762
lfemur -22.9508 3.75176 -6.6031
ltibia 57.969
lfoot -4.8917 3.97233
ltoes -14.4733
378
root -19.9228 18.1826 3.44797 112.495 -81.2117 -106.936
lowerback -2.09681 -0.76925 5.14301
upperback -2.59078 -1.21885 5.62341
thorax -1.47409 -0.72734 2.91036
lowerneck -9.11675 -7.64746 -8.86723
upperneck 17.9449 -12.1417 12.8337
head 8.40064 -5.45683 4.42905
rclavicle -1.9456e-014 5.24792e-014
rhumerus -9.7236 -37.9417 -52.0749
rradius 82.0514
rwrist -32.3339
rhand -10.9389 -28.3686
rfingers 7.12502
rthumb 15.0793 -57.7994
lclavicle -1.9456e-014 5.24792e-014
lhumerus -7.87679 19.427 59.6212
lradius 95.3049
lwrist 22.0479
lhand -4.25795 20.0253
lfingers 7.12502
lthumb 21.5062 48.8514
rfemur -6.78873 4.21561 33.3748
rtibia 12.98
rfoot -5.98046 -8.86063
rtoes 17.337
lfemur -23.6152 3.77197 -6.5051
ltibia 57.186
lfoot -5.59619 4.19592
ltoes -14.5231
